<mxfile host="app.diagrams.net" modified="2024-04-19T16:25:45.728Z" agent="Mozilla/5.0 (Windows NT 10.0; Win64; x64) AppleWebKit/537.36 (KHTML, like Gecko) Chrome/123.0.0.0 Safari/537.36" etag="c4B6GhYioUldrmWzDWl8" version="24.2.5" type="github">
  <diagram name="Page-1" id="IRcq6N_0sUGnp6VcJ2wl">
    <mxGraphModel dx="836" dy="442" grid="1" gridSize="10" guides="1" tooltips="1" connect="1" arrows="1" fold="1" page="1" pageScale="1" pageWidth="827" pageHeight="1169" math="0" shadow="0">
      <root>
        <mxCell id="0" />
        <mxCell id="1" parent="0" />
        <mxCell id="nTlnlcaScZj5eG_At7y3-2" value="" style="endArrow=none;html=1;rounded=0;" edge="1" parent="1">
          <mxGeometry width="50" height="50" relative="1" as="geometry">
            <mxPoint x="440" y="120" as="sourcePoint" />
            <mxPoint x="440" y="80" as="targetPoint" />
          </mxGeometry>
        </mxCell>
        <mxCell id="nTlnlcaScZj5eG_At7y3-3" value="" style="endArrow=none;html=1;rounded=0;" edge="1" parent="1">
          <mxGeometry width="50" height="50" relative="1" as="geometry">
            <mxPoint x="280" y="120" as="sourcePoint" />
            <mxPoint x="600" y="120" as="targetPoint" />
          </mxGeometry>
        </mxCell>
        <mxCell id="nTlnlcaScZj5eG_At7y3-4" value="" style="endArrow=classic;html=1;rounded=0;" edge="1" parent="1">
          <mxGeometry width="50" height="50" relative="1" as="geometry">
            <mxPoint x="280" y="120" as="sourcePoint" />
            <mxPoint x="280" y="150" as="targetPoint" />
          </mxGeometry>
        </mxCell>
        <mxCell id="nTlnlcaScZj5eG_At7y3-5" value="" style="endArrow=classic;html=1;rounded=0;" edge="1" parent="1">
          <mxGeometry width="50" height="50" relative="1" as="geometry">
            <mxPoint x="390" y="120" as="sourcePoint" />
            <mxPoint x="390" y="150" as="targetPoint" />
          </mxGeometry>
        </mxCell>
        <mxCell id="nTlnlcaScZj5eG_At7y3-6" value="" style="endArrow=classic;html=1;rounded=0;" edge="1" parent="1">
          <mxGeometry width="50" height="50" relative="1" as="geometry">
            <mxPoint x="600" y="120" as="sourcePoint" />
            <mxPoint x="600" y="150" as="targetPoint" />
          </mxGeometry>
        </mxCell>
        <mxCell id="nTlnlcaScZj5eG_At7y3-7" value="" style="endArrow=classic;html=1;rounded=0;" edge="1" parent="1">
          <mxGeometry width="50" height="50" relative="1" as="geometry">
            <mxPoint x="490" y="120" as="sourcePoint" />
            <mxPoint x="490" y="150" as="targetPoint" />
          </mxGeometry>
        </mxCell>
        <mxCell id="nTlnlcaScZj5eG_At7y3-8" value="Long-Range&lt;span style=&quot;font-family: monospace; font-size: 0px; text-align: start; text-wrap: nowrap;&quot;&gt;%3CmxGraphModel%3E%3Croot%3E%3CmxCell%20id%3D%220%22%2F%3E%3CmxCell%20id%3D%221%22%20parent%3D%220%22%2F%3E%3CmxCell%20id%3D%222%22%20value%3D%22%22%20style%3D%22endArrow%3Dclassic%3Bhtml%3D1%3Brounded%3D0%3B%22%20edge%3D%221%22%20parent%3D%221%22%3E%3CmxGeometry%20width%3D%2250%22%20height%3D%2250%22%20relative%3D%221%22%20as%3D%22geometry%22%3E%3CmxPoint%20x%3D%22600%22%20y%3D%22120%22%20as%3D%22sourcePoint%22%2F%3E%3CmxPoint%20x%3D%22600%22%20y%3D%22150%22%20as%3D%22targetPoint%22%2F%3E%3C%2FmxGeometry%3E%3C%2FmxCell%3E%3C%2Froot%3E%3C%2FmxGraphModel%3E&lt;/span&gt;" style="rounded=1;whiteSpace=wrap;html=1;fillColor=#b1ddf0;strokeColor=#10739e;fontStyle=1" vertex="1" parent="1">
          <mxGeometry x="240" y="150" width="80" height="50" as="geometry" />
        </mxCell>
        <mxCell id="nTlnlcaScZj5eG_At7y3-9" value="Low-power" style="rounded=1;whiteSpace=wrap;html=1;fillColor=#b1ddf0;strokeColor=#10739e;fontStyle=1" vertex="1" parent="1">
          <mxGeometry x="350" y="150" width="80" height="50" as="geometry" />
        </mxCell>
        <mxCell id="nTlnlcaScZj5eG_At7y3-16" style="edgeStyle=orthogonalEdgeStyle;rounded=0;orthogonalLoop=1;jettySize=auto;html=1;exitX=0.5;exitY=1;exitDx=0;exitDy=0;" edge="1" parent="1" source="nTlnlcaScZj5eG_At7y3-10">
          <mxGeometry relative="1" as="geometry">
            <mxPoint x="490.33333333333326" y="240" as="targetPoint" />
          </mxGeometry>
        </mxCell>
        <mxCell id="nTlnlcaScZj5eG_At7y3-24" style="edgeStyle=orthogonalEdgeStyle;rounded=0;orthogonalLoop=1;jettySize=auto;html=1;exitX=0.5;exitY=1;exitDx=0;exitDy=0;entryX=0.5;entryY=0;entryDx=0;entryDy=0;" edge="1" parent="1" source="nTlnlcaScZj5eG_At7y3-10" target="nTlnlcaScZj5eG_At7y3-13">
          <mxGeometry relative="1" as="geometry" />
        </mxCell>
        <mxCell id="nTlnlcaScZj5eG_At7y3-25" style="edgeStyle=orthogonalEdgeStyle;rounded=0;orthogonalLoop=1;jettySize=auto;html=1;exitX=0.5;exitY=1;exitDx=0;exitDy=0;" edge="1" parent="1" source="nTlnlcaScZj5eG_At7y3-10" target="nTlnlcaScZj5eG_At7y3-15">
          <mxGeometry relative="1" as="geometry" />
        </mxCell>
        <mxCell id="nTlnlcaScZj5eG_At7y3-26" style="edgeStyle=orthogonalEdgeStyle;rounded=0;orthogonalLoop=1;jettySize=auto;html=1;exitX=0.5;exitY=1;exitDx=0;exitDy=0;" edge="1" parent="1" source="nTlnlcaScZj5eG_At7y3-10" target="nTlnlcaScZj5eG_At7y3-18">
          <mxGeometry relative="1" as="geometry" />
        </mxCell>
        <mxCell id="nTlnlcaScZj5eG_At7y3-27" style="edgeStyle=orthogonalEdgeStyle;rounded=0;orthogonalLoop=1;jettySize=auto;html=1;exitX=0.5;exitY=1;exitDx=0;exitDy=0;entryX=0.5;entryY=0;entryDx=0;entryDy=0;" edge="1" parent="1" source="nTlnlcaScZj5eG_At7y3-10" target="nTlnlcaScZj5eG_At7y3-20">
          <mxGeometry relative="1" as="geometry" />
        </mxCell>
        <mxCell id="nTlnlcaScZj5eG_At7y3-10" value="Parameters" style="rounded=1;whiteSpace=wrap;html=1;fillColor=#b1ddf0;strokeColor=#10739e;fontStyle=1" vertex="1" parent="1">
          <mxGeometry x="450" y="150" width="80" height="50" as="geometry" />
        </mxCell>
        <mxCell id="nTlnlcaScZj5eG_At7y3-11" value="Chirp Spread-spectrum Modulation" style="rounded=1;whiteSpace=wrap;html=1;fillColor=#b1ddf0;strokeColor=#10739e;fontStyle=1" vertex="1" parent="1">
          <mxGeometry x="550" y="150" width="100" height="50" as="geometry" />
        </mxCell>
        <mxCell id="nTlnlcaScZj5eG_At7y3-13" value="Transmission Power" style="rounded=1;whiteSpace=wrap;html=1;fillColor=#d5e8d4;strokeColor=#82b366;fontStyle=1;gradientColor=#97d077;" vertex="1" parent="1">
          <mxGeometry x="160" y="240" width="100" height="40" as="geometry" />
        </mxCell>
        <mxCell id="nTlnlcaScZj5eG_At7y3-15" value="Code-rate" style="rounded=1;whiteSpace=wrap;html=1;fillColor=#d5e8d4;strokeColor=#82b366;fontStyle=1;gradientColor=#97d077;" vertex="1" parent="1">
          <mxGeometry x="310" y="240" width="90" height="40" as="geometry" />
        </mxCell>
        <mxCell id="nTlnlcaScZj5eG_At7y3-17" value="Spreading factor" style="rounded=1;whiteSpace=wrap;html=1;fillColor=#f8cecc;strokeColor=#b85450;fontStyle=1;gradientColor=#ea6b66;" vertex="1" parent="1">
          <mxGeometry x="430" y="240" width="100" height="40" as="geometry" />
        </mxCell>
        <mxCell id="nTlnlcaScZj5eG_At7y3-18" value="Bandwidth" style="rounded=1;whiteSpace=wrap;html=1;fillColor=#d5e8d4;strokeColor=#82b366;fontStyle=1;gradientColor=#97d077;" vertex="1" parent="1">
          <mxGeometry x="560" y="240" width="100" height="40" as="geometry" />
        </mxCell>
        <mxCell id="nTlnlcaScZj5eG_At7y3-20" value="Carrier Frequency" style="rounded=1;whiteSpace=wrap;html=1;fillColor=#d5e8d4;strokeColor=#82b366;fontStyle=1;gradientColor=#97d077;" vertex="1" parent="1">
          <mxGeometry x="690" y="240" width="100" height="40" as="geometry" />
        </mxCell>
        <mxCell id="nTlnlcaScZj5eG_At7y3-28" value="" style="endArrow=classic;html=1;rounded=0;exitX=0.599;exitY=1.121;exitDx=0;exitDy=0;exitPerimeter=0;strokeWidth=4;" edge="1" parent="1" source="nTlnlcaScZj5eG_At7y3-17">
          <mxGeometry width="50" height="50" relative="1" as="geometry">
            <mxPoint x="400" y="250" as="sourcePoint" />
            <mxPoint x="490" y="320" as="targetPoint" />
          </mxGeometry>
        </mxCell>
        <mxCell id="nTlnlcaScZj5eG_At7y3-29" value="" style="rounded=0;whiteSpace=wrap;html=1;" vertex="1" parent="1">
          <mxGeometry x="250" y="320" width="480" height="70" as="geometry" />
        </mxCell>
        <mxCell id="nTlnlcaScZj5eG_At7y3-30" value="&lt;ul&gt;&lt;li&gt;&lt;b&gt;Most important parameter in this application&lt;/b&gt;&lt;/li&gt;&lt;li&gt;&lt;b&gt;Defines ratio between the bandwidth(chip rate) and the data rate(symbol rate)&lt;/b&gt;&lt;/li&gt;&lt;li&gt;&lt;span style=&quot;color: rgb(13, 13, 13); white-space-collapse: preserve; background-color: rgb(255, 255, 255);&quot;&gt;&lt;font style=&quot;font-size: 12px;&quot;&gt;&lt;b style=&quot;&quot;&gt;Increasing the spreading factor indeed leads to higher latency and extends the transmission distance(time distance trade-off)&lt;/b&gt;&lt;/font&gt;&lt;/span&gt;&lt;br&gt;&lt;/li&gt;&lt;/ul&gt;" style="text;html=1;align=left;verticalAlign=middle;whiteSpace=wrap;rounded=0;" vertex="1" parent="1">
          <mxGeometry x="230" y="320" width="490" height="70" as="geometry" />
        </mxCell>
      </root>
    </mxGraphModel>
  </diagram>
</mxfile>
